<svg xmlns="http://www.w3.org/2000/svg" xmlns:xlink="http://www.w3.org/1999/xlink" version="1.1" width="1024px" height="1024px" style="shape-rendering:geometricPrecision; text-rendering:geometricPrecision; image-rendering:optimizeQuality; fill-rule:evenodd; clip-rule:evenodd"> 					<g><path style="opacity:1" fill="#4c26d3" d="M -0.5,-0.5 C 340.833,-0.5 682.167,-0.5 1023.5,-0.5C 1023.5,340.833 1023.5,682.167 1023.5,1023.5C 682.167,1023.5 340.833,1023.5 -0.5,1023.5C -0.5,682.167 -0.5,340.833 -0.5,-0.5 Z"/></g> 					<g><path style="opacity:1" fill="#3e1ad0" d="M 714.5,392.5 C 714.5,373.833 714.5,355.167 714.5,336.5C 653.833,336.5 593.167,336.5 532.5,336.5C 532.5,336.167 532.5,335.833 532.5,335.5C 593.331,334.501 654.331,334.168 715.5,334.5C 715.83,354.007 715.497,373.341 714.5,392.5 Z"/></g> 					<g><path style="opacity:1" fill="#fefdfe" d="M 308.5,336.5 C 369.167,336.5 429.833,336.5 490.5,336.5C 490.5,355.167 490.5,373.833 490.5,392.5C 450.833,392.5 411.167,392.5 371.5,392.5C 371.5,420.833 371.5,449.167 371.5,477.5C 404.5,477.5 437.5,477.5 470.5,477.5C 471.497,495.659 471.83,513.992 471.5,532.5C 438.167,532.5 404.833,532.5 371.5,532.5C 371.5,564.5 371.5,596.5 371.5,628.5C 411.833,628.5 452.167,628.5 492.5,628.5C 492.5,647.5 492.5,666.5 492.5,685.5C 431.167,685.5 369.833,685.5 308.5,685.5C 308.5,569.167 308.5,452.833 308.5,336.5 Z"/></g> 					<g><path style="opacity:1" fill="#fefefe" d="M 532.5,336.5 C 593.167,336.5 653.833,336.5 714.5,336.5C 714.5,355.167 714.5,373.833 714.5,392.5C 674.833,392.5 635.167,392.5 595.5,392.5C 595.5,424.167 595.5,455.833 595.5,487.5C 629.5,487.5 663.5,487.5 697.5,487.5C 697.5,505.833 697.5,524.167 697.5,542.5C 663.5,542.5 629.5,542.5 595.5,542.5C 595.5,590.167 595.5,637.833 595.5,685.5C 574.5,685.5 553.5,685.5 532.5,685.5C 532.5,569.167 532.5,452.833 532.5,336.5 Z"/></g> 					<g><path style="opacity:1" fill="#1b00ca" d="M 470.5,477.5 C 437.5,477.5 404.5,477.5 371.5,477.5C 371.5,449.167 371.5,420.833 371.5,392.5C 411.167,392.5 450.833,392.5 490.5,392.5C 490.5,373.833 490.5,355.167 490.5,336.5C 491.499,354.757 491.832,373.757 491.5,393.5C 451.833,393.5 412.167,393.5 372.5,393.5C 372.5,421.167 372.5,448.833 372.5,476.5C 405.338,476.168 438.004,476.502 470.5,477.5 Z"/></g> 					<g><path style="opacity:1" fill="#1600ca" d="M 532.5,335.5 C 532.5,335.833 532.5,336.167 532.5,336.5C 532.5,452.833 532.5,569.167 532.5,685.5C 553.5,685.5 574.5,685.5 595.5,685.5C 595.833,685.5 596.167,685.5 596.5,685.5C 575.006,686.497 553.34,686.831 531.5,686.5C 531.167,569.332 531.5,452.332 532.5,335.5 Z"/></g> 					<g><path style="opacity:1" fill="#1800cb" d="M 308.5,336.5 C 308.5,452.833 308.5,569.167 308.5,685.5C 369.833,685.5 431.167,685.5 492.5,685.5C 431.571,686.5 369.905,686.833 307.5,686.5C 307.167,569.096 307.5,452.43 308.5,336.5 Z"/></g> 					<g><path style="opacity:1" fill="#3c19cf" d="M 714.5,392.5 C 675.67,393.499 636.67,393.832 597.5,393.5C 597.5,424.167 597.5,454.833 597.5,485.5C 631.173,485.167 664.84,485.5 698.5,486.5C 699.154,495.955 699.488,505.455 699.5,515C 699.494,524.408 699.16,533.742 698.5,543C 664.835,543.5 631.168,543.667 597.5,543.5C 597.832,591.003 597.499,638.336 596.5,685.5C 596.167,685.5 595.833,685.5 595.5,685.5C 595.5,637.833 595.5,590.167 595.5,542.5C 629.5,542.5 663.5,542.5 697.5,542.5C 697.5,524.167 697.5,505.833 697.5,487.5C 663.5,487.5 629.5,487.5 595.5,487.5C 595.5,455.833 595.5,424.167 595.5,392.5C 635.167,392.5 674.833,392.5 714.5,392.5 Z"/></g> 					<g><path style="opacity:1" fill="#1a00c9" d="M 471.5,532.5 C 438.671,533.498 405.671,533.832 372.5,533.5C 372.5,564.833 372.5,596.167 372.5,627.5C 413.239,627.167 453.239,627.5 492.5,628.5C 452.167,628.5 411.833,628.5 371.5,628.5C 371.5,596.5 371.5,564.5 371.5,532.5C 404.833,532.5 438.167,532.5 471.5,532.5 Z"/></g> 					</svg>