<svg version="1.1" id="Layer_3" xmlns="http://www.w3.org/2000/svg" x="0" y="0" viewBox="0 0 64 64" style="enable-background:new 0 0 64 64" xml:space="preserve"><style>.st1{fill:#63312d}.st12{fill:#fff}.st16{fill:#ffe8bb}</style><path d="M30.315 4.39c-4.182.099-8.324 1.276-11.841 3.691-6.31 4.331-9.088 11.806-9.592 19.21l-5.545 8.586c-.623.965.07 2.238 1.219 2.238h3.199v10.443a4.502 4.502 0 0 0 4.502 4.502H23.54v6.558h18.04V48.037c0-.183 2.476-1.606 2.695-1.778 8.819-6.923 12.393-20.943 6.86-30.946-4.002-7.235-12.8-11.112-20.82-10.923z" style="fill:#f9dd9d"/><path class="st16" d="M9.629 50.059c0 .99.33 1.91.87 2.65-1.61-.7-2.74-2.29-2.74-4.15v-8.94h1.87v10.44zM23.539 54.559h1.88v5.06h-1.88zM47.229 10.439c-.02-.01-.04-.03-.06-.04-4.32-3.06-9.81-4.63-14.98-4.51-.35.01-.7.02-1.05.05-3.82.26-7.57 1.43-10.79 3.64-6.31 4.33-9.09 11.81-9.59 19.21l-5.55 8.59c-.15.24-.22.49-.23.74h-.42c-1.15 0-1.85-1.28-1.22-2.24l5.54-8.59c.51-7.4 3.28-14.88 9.59-19.21 3.52-2.41 7.66-3.59 11.85-3.69.27-.01.54-.01.82-.01.24 0 .49.01.73.02.13 0 .26.01.39.02.27.01.54.03.81.06.34.03.67.07 1.01.11l.2.03c.33.04.65.09.98.15h.02c.33.06.67.13 1 .2.03.01.05.01.08.02.37.08.73.17 1.09.27.28.07.56.15.84.24.18.05.35.11.52.16.19.07.39.13.59.21.79.27 1.56.59 2.31.95.3.14.61.29.9.44 1.2.63 2.35 1.36 3.41 2.18.31.23.61.48.9.74.11.08.21.17.31.26z"/><path d="M44.279 46.259c-.22.17-2.7 1.59-2.7 1.78v11.58h-10.44v-22.8h5.5v-14.12h-5.5V4.379c7.8.09 16.12 3.95 20 10.93 5.53 10.01 1.95 24.03-6.86 30.95z" style="fill:#84dbff"/><path d="M47.169 10.399c-4.32-3.06-9.81-4.63-14.98-4.51-.35.01-.7.02-1.05.05v-1.56c.24 0 .49.01.73.02.13 0 .26.01.39.02.27.01.54.03.81.06.34.03.67.07 1.01.11l.2.03c.33.04.65.09.98.15h.02c.33.06.67.13 1 .2.03.01.05.01.08.02.37.08.73.17 1.09.27.28.07.56.15.84.24.18.05.35.11.52.16.19.07.39.13.59.21.79.27 1.56.59 2.31.95.3.14.61.29.9.44 1.2.63 2.35 1.36 3.41 2.18.31.24.61.48.9.74.09.07.17.14.25.22z" style="fill:#a9ebff"/><path class="st1" d="M41.58 60.118H23.54a.5.5 0 0 1-.5-.5V53.56H12.257a5.008 5.008 0 0 1-5.003-5.002v-9.943H4.556a1.923 1.923 0 0 1-1.713-1.018 1.923 1.923 0 0 1 .075-1.991l5.476-8.479c.616-8.636 4.093-15.542 9.798-19.458 3.447-2.367 7.635-3.674 12.112-3.779 8.916-.213 17.453 4.285 21.268 11.18 5.456 9.863 2.256 24.326-6.988 31.582-.073.058-.386.251-.781.491-.471.287-1.39.846-1.723 1.096v11.379a.5.5 0 0 1-.5.5zm-17.54-1h17.04V48.036c0-.36.123-.48 2.203-1.747.338-.205.608-.368.686-.426 8.879-6.969 11.961-20.85 6.729-30.309C46.494 7.955 37.442 4.726 30.326 4.89c-4.283.101-8.283 1.347-11.569 3.604-7.389 5.072-9.046 13.976-9.375 18.831a.503.503 0 0 1-.079.237l-5.545 8.587a.937.937 0 0 0-.037.97.937.937 0 0 0 .835.496h3.199a.5.5 0 0 1 .5.5v10.443a4.007 4.007 0 0 0 4.003 4.002H23.54a.5.5 0 0 1 .5.5v6.058z"/><path d="M58.294 15.313c-4.002-7.235-12.8-11.112-20.82-10.922h-7.159c8.02-.189 16.818 3.687 20.82 10.922 5.533 10.003 1.959 24.023-6.86 30.946-.219.172-2.695 1.595-2.695 1.778v11.581h7.159V48.037c0-.183 2.476-1.606 2.695-1.778 8.819-6.923 12.393-20.944 6.86-30.946z" style="fill:#52badb"/><path class="st1" d="M48.739 60.118H41.58a.5.5 0 0 1-.5-.5V48.036c0-.36.123-.48 2.203-1.747.338-.205.608-.368.686-.426 8.879-6.969 11.961-20.85 6.729-30.309C46.701 8.329 38.316 5.051 31.388 4.89h-1.074a.5.5 0 0 1-.012-1c.397-.011.794-.011 1.189 0h5.982c8.889-.214 17.443 4.284 21.258 11.181 5.456 9.863 2.255 24.325-6.989 31.582-.073.058-.386.251-.781.491-.471.287-1.39.846-1.723 1.096v11.379a.498.498 0 0 1-.499.499zm-6.659-1h6.159V48.036c0-.36.123-.48 2.203-1.747.338-.205.608-.368.686-.426 8.879-6.969 11.962-20.85 6.729-30.309-4.1-7.412-12.816-10.67-19.842-10.671 5.847 1.672 10.873 5.334 13.557 10.187 5.456 9.863 2.256 24.326-6.988 31.582-.073.058-.386.251-.781.491-.471.287-1.39.846-1.723 1.096v10.879z"/><path class="st1" d="M31.139 16.057h9.489v1h-9.489z"/><path class="st1" d="M37.077 13.724h1v2.833h-1zM41.526 26.386h-4.887v-1h4.387v-1.644a.5.5 0 0 1 .5-.5h6.306v1h-5.806v1.644a.5.5 0 0 1-.5.5z"/><path class="st1" d="M44.957 29.68h-3.431a.5.5 0 0 1-.5-.5v-3.294h1v2.794h2.931v1zM31.639 59.619h-1v-22.8a.5.5 0 0 1 .5-.5h5v-13.12h-5a.5.5 0 0 1-.5-.5V4.379h1v17.82h5a.5.5 0 0 1 .5.5v14.12a.5.5 0 0 1-.5.5h-5v22.3z"/><circle class="st12" cx="37.577" cy="12.223" r="1.5"/><circle class="st12" cx="42.129" cy="16.557" r="1.5"/><circle class="st12" cx="49.332" cy="23.742" r="1.5"/><circle class="st12" cx="46.457" cy="29.18" r="1.5"/><path class="st1" d="M37.577 14.224c-1.103 0-2-.897-2-2s.897-2 2-2 2 .897 2 2-.898 2-2 2zm0-3a1 1 0 1 0 0 2 1 1 0 0 0 0-2zM42.129 18.557c-1.103 0-2-.897-2-2s.897-2 2-2 2 .897 2 2-.898 2-2 2zm0-3a1 1 0 1 0 0 2 1 1 0 0 0 0-2zM49.332 25.742c-1.103 0-2-.897-2-2s.897-2 2-2 2 .897 2 2-.898 2-2 2zm0-3a1 1 0 1 0 0 2 1 1 0 0 0 0-2zM46.457 31.18c-1.103 0-2-.897-2-2s.897-2 2-2 2 .897 2 2-.898 2-2 2zm0-3a1 1 0 1 0 0 2 1 1 0 0 0 0-2z"/></svg>