<svg xmlns="http://www.w3.org/2000/svg" xmlns:xlink="http://www.w3.org/1999/xlink" version="1.1" width="128px" height="128px" style="shape-rendering:geometricPrecision; text-rendering:geometricPrecision; image-rendering:optimizeQuality; fill-rule:evenodd; clip-rule:evenodd"> 						<g><path style="opacity:0.216" fill="#7ac2e0" d="M 35.5,9.5 C 35.5,10.5 35.5,11.5 35.5,12.5C 33.1432,12.3367 30.8098,12.5034 28.5,13C 26.3474,13.0995 24.6808,13.9328 23.5,15.5C 22.5,15.5 21.5,15.5 20.5,15.5C 20.5,15.1667 20.5,14.8333 20.5,14.5C 25.3923,12.3639 30.3923,10.6972 35.5,9.5 Z"/></g> 						<g><path style="opacity:1" fill="#99d0e7" d="M 35.5,9.5 C 36.5,9.5 37.5,9.5 38.5,9.5C 38.9704,10.6935 39.9704,11.3601 41.5,11.5C 43.0296,11.3601 44.0296,10.6935 44.5,9.5C 44.8333,9.5 45.1667,9.5 45.5,9.5C 45.5,10.5 45.5,11.5 45.5,12.5C 50.9044,12.434 55.9044,13.7673 60.5,16.5C 51.3483,17.4936 42.015,17.8269 32.5,17.5C 31.5,17.5 30.5,17.5 29.5,17.5C 27.7857,16.2616 25.7857,15.595 23.5,15.5C 24.6808,13.9328 26.3474,13.0995 28.5,13C 30.8098,12.5034 33.1432,12.3367 35.5,12.5C 35.5,11.5 35.5,10.5 35.5,9.5 Z"/></g> 						<g><path style="opacity:0.082" fill="#70bede" d="M 38.5,9.5 C 40.5,9.5 42.5,9.5 44.5,9.5C 44.0296,10.6935 43.0296,11.3601 41.5,11.5C 39.9704,11.3601 38.9704,10.6935 38.5,9.5 Z"/></g> 						<g><path style="opacity:0.941" fill="#1594c9" d="M 20.5,14.5 C 20.5,14.8333 20.5,15.1667 20.5,15.5C 21.7568,18.6868 23.0901,21.8535 24.5,25C 24.1667,25.3333 23.8333,25.6667 23.5,26C 26.248,31.8886 28.9146,37.7219 31.5,43.5C 30.5346,57.4512 30.2013,71.4512 30.5,85.5C 27.5,85.5 24.5,85.5 21.5,85.5C 21.5,88.8333 21.5,92.1667 21.5,95.5C 19.1667,95.5 16.8333,95.5 14.5,95.5C 14.5,92.1667 14.5,88.8333 14.5,85.5C 11.5,85.5 8.5,85.5 5.5,85.5C 5.3334,68.83 5.50007,52.1633 6,35.5C 7.39041,26.0314 12.2237,19.0314 20.5,14.5 Z"/></g> 						<g><path style="opacity:0.149" fill="#76c1e0" d="M 45.5,9.5 C 52.3524,10.5088 58.519,13.1755 64,17.5C 69.481,13.1755 75.6476,10.5088 82.5,9.5C 82.5,10.5 82.5,11.5 82.5,12.5C 75.6442,12.4213 69.4776,14.4213 64,18.5C 62.6974,18.0217 61.5307,17.355 60.5,16.5C 55.9044,13.7673 50.9044,12.434 45.5,12.5C 45.5,11.5 45.5,10.5 45.5,9.5 Z"/></g> 						<g><path style="opacity:0.942" fill="#1594c9" d="M 107.5,14.5 C 115.776,19.0314 120.61,26.0314 122,35.5C 122.5,52.1633 122.667,68.83 122.5,85.5C 119.5,85.5 116.5,85.5 113.5,85.5C 113.5,88.8333 113.5,92.1667 113.5,95.5C 111.167,95.5 108.833,95.5 106.5,95.5C 106.5,92.1667 106.5,88.8333 106.5,85.5C 103.5,85.5 100.5,85.5 97.5,85.5C 97.9941,69.0818 97.3275,52.7484 95.5,36.5C 96.4584,36.0472 97.2917,35.3805 98,34.5C 99.5213,28.7195 101.355,23.0529 103.5,17.5C 103.043,16.7025 102.376,16.3691 101.5,16.5C 103.5,15.8333 105.5,15.1667 107.5,14.5 Z"/></g> 						<g><path style="opacity:0.971" fill="#1088bb" d="M 20.5,15.5 C 21.5,15.5 22.5,15.5 23.5,15.5C 25.7857,15.595 27.7857,16.2616 29.5,17.5C 28.8761,17.9169 28.5427,18.5836 28.5,19.5C 29.8992,24.1975 31.3992,28.8642 33,33.5C 33.6708,32.7476 34.5041,32.4142 35.5,32.5C 32.7689,35.6343 31.4355,39.301 31.5,43.5C 28.9146,37.7219 26.248,31.8886 23.5,26C 23.8333,25.6667 24.1667,25.3333 24.5,25C 23.0901,21.8535 21.7568,18.6868 20.5,15.5 Z"/></g> 						<g><path style="opacity:1" fill="#8fcce5" d="M 82.5,9.5 C 82.8333,9.5 83.1667,9.5 83.5,9.5C 83.9704,10.6935 84.9704,11.3601 86.5,11.5C 88.0296,11.3601 89.0296,10.6935 89.5,9.5C 95.6994,10.2181 101.699,11.8848 107.5,14.5C 105.5,15.1667 103.5,15.8333 101.5,16.5C 99.2143,16.595 97.2143,17.2616 95.5,18.5C 90.9983,20.0079 86.9983,22.3412 83.5,25.5C 70.5,24.1667 57.5,24.1667 44.5,25.5C 40.749,22.4077 36.749,19.7411 32.5,17.5C 42.015,17.8269 51.3483,17.4936 60.5,16.5C 61.5307,17.355 62.6974,18.0217 64,18.5C 69.4776,14.4213 75.6442,12.4213 82.5,12.5C 82.5,11.5 82.5,10.5 82.5,9.5 Z"/></g> 						<g><path style="opacity:0.082" fill="#70bede" d="M 83.5,9.5 C 85.5,9.5 87.5,9.5 89.5,9.5C 89.0296,10.6935 88.0296,11.3601 86.5,11.5C 84.9704,11.3601 83.9704,10.6935 83.5,9.5 Z"/></g> 						<g><path style="opacity:0.98" fill="#0c84b7" d="M 101.5,16.5 C 102.376,16.3691 103.043,16.7025 103.5,17.5C 101.355,23.0529 99.5213,28.7195 98,34.5C 97.2917,35.3805 96.4584,36.0472 95.5,36.5C 93.6533,33.3091 90.9866,31.3091 87.5,30.5C 89.288,30.7852 90.9547,30.4519 92.5,29.5C 94.1238,25.8968 95.4571,22.5635 96.5,19.5C 96.3764,18.8933 96.0431,18.56 95.5,18.5C 97.2143,17.2616 99.2143,16.595 101.5,16.5 Z"/></g> 						<g><path style="opacity:1" fill="#0a7bab" d="M 29.5,17.5 C 30.5,17.5 31.5,17.5 32.5,17.5C 36.749,19.7411 40.749,22.4077 44.5,25.5C 45.4411,27.7721 46.7745,29.7721 48.5,31.5C 49.1098,32.391 49.4431,33.391 49.5,34.5C 49.5,34.8333 49.5,35.1667 49.5,35.5C 45.4398,30.9805 40.7731,29.9805 35.5,32.5C 34.5041,32.4142 33.6708,32.7476 33,33.5C 31.3992,28.8642 29.8992,24.1975 28.5,19.5C 28.5427,18.5836 28.8761,17.9169 29.5,17.5 Z"/></g> 						<g><path style="opacity:0.997" fill="#0a79a9" d="M 95.5,18.5 C 96.0431,18.56 96.3764,18.8933 96.5,19.5C 95.4571,22.5635 94.1238,25.8968 92.5,29.5C 90.9547,30.4519 89.288,30.7852 87.5,30.5C 85.9142,31.1481 84.2475,31.6481 82.5,32C 81.2949,33.3756 79.9616,34.5423 78.5,35.5C 78.5,35.1667 78.5,34.8333 78.5,34.5C 78.5569,33.391 78.8902,32.391 79.5,31.5C 81.2255,29.7721 82.5589,27.7721 83.5,25.5C 86.9983,22.3412 90.9983,20.0079 95.5,18.5 Z"/></g> 						<g><path style="opacity:1" fill="#7dc4e1" d="M 83.5,25.5 C 82.5589,27.7721 81.2255,29.7721 79.5,31.5C 69.1667,30.1667 58.8333,30.1667 48.5,31.5C 46.7745,29.7721 45.4411,27.7721 44.5,25.5C 57.5,24.1667 70.5,24.1667 83.5,25.5 Z"/></g> 						<g><path style="opacity:1" fill="#6ebdde" d="M 79.5,31.5 C 78.8902,32.391 78.5569,33.391 78.5,34.5C 77.6618,34.8417 77.3284,35.5084 77.5,36.5C 68.5,35.1667 59.5,35.1667 50.5,36.5C 50.6716,35.5084 50.3382,34.8417 49.5,34.5C 49.4431,33.391 49.1098,32.391 48.5,31.5C 58.8333,30.1667 69.1667,30.1667 79.5,31.5 Z"/></g> 						<g><path style="opacity:0.923" fill="#30a1cf" d="M 49.5,34.5 C 50.3382,34.8417 50.6716,35.5084 50.5,36.5C 51.7736,38.9925 52.4403,41.6592 52.5,44.5C 52.5,46.1667 52.5,47.8333 52.5,49.5C 52.3379,51.5273 52.5045,53.5273 53,55.5C 60.0787,54.5201 67.2454,54.1868 74.5,54.5C 74.3505,55.552 74.5172,56.552 75,57.5C 75.4974,54.854 75.6641,52.1873 75.5,49.5C 75.5,47.5 75.5,45.5 75.5,43.5C 75.767,41.0347 76.4336,38.7014 77.5,36.5C 77.3284,35.5084 77.6618,34.8417 78.5,34.5C 78.5,34.8333 78.5,35.1667 78.5,35.5C 78.1484,38.4284 77.4817,41.2617 76.5,44C 76.5526,53.2903 76.5526,62.7903 76.5,72.5C 75.5655,71.4324 75.2322,70.099 75.5,68.5C 67.8333,68.5 60.1667,68.5 52.5,68.5C 52.7678,70.099 52.4345,71.4324 51.5,72.5C 51.9802,60.0743 51.3135,47.7409 49.5,35.5C 49.5,35.1667 49.5,34.8333 49.5,34.5 Z"/></g> 						<g><path style="opacity:1" fill="#46abd5" d="M 52.5,49.5 C 60.1667,49.5 67.8333,49.5 75.5,49.5C 75.6641,52.1873 75.4974,54.854 75,57.5C 74.5172,56.552 74.3505,55.552 74.5,54.5C 67.2454,54.1868 60.0787,54.5201 53,55.5C 52.5045,53.5273 52.3379,51.5273 52.5,49.5 Z"/></g> 						<g><path style="opacity:1" fill="#53b1d8" d="M 75.5,43.5 C 75.5,45.5 75.5,47.5 75.5,49.5C 67.8333,49.5 60.1667,49.5 52.5,49.5C 52.5,47.8333 52.5,46.1667 52.5,44.5C 53.404,43.791 53.7373,42.791 53.5,41.5C 61.111,40.9238 68.4444,41.5905 75.5,43.5 Z"/></g> 						<g><path style="opacity:1" fill="#61b8db" d="M 77.5,36.5 C 76.4336,38.7014 75.767,41.0347 75.5,43.5C 68.4444,41.5905 61.111,40.9238 53.5,41.5C 53.7373,42.791 53.404,43.791 52.5,44.5C 52.4403,41.6592 51.7736,38.9925 50.5,36.5C 59.5,35.1667 68.5,35.1667 77.5,36.5 Z"/></g> 						<g><path style="opacity:0.889" fill="#1795ca" d="M 76.5,72.5 C 76.5,74.5 76.5,76.5 76.5,78.5C 81.1667,78.5 85.8333,78.5 90.5,78.5C 87.5146,84.3441 83.8479,89.8441 79.5,95C 80.4506,95.7175 80.6172,96.5509 80,97.5C 79.1072,96.2888 78.2739,96.2888 77.5,97.5C 73.4959,103.658 68.9959,109.325 64,114.5C 57.9757,107.472 52.309,100.138 47,92.5C 46.2588,91.3595 45.4255,91.3595 44.5,92.5C 43.7088,88.4234 41.5421,84.7567 38,81.5C 37.5172,80.552 37.3505,79.552 37.5,78.5C 42.1667,78.5 46.8333,78.5 51.5,78.5C 51.5,76.5 51.5,74.5 51.5,72.5C 52.4345,71.4324 52.7678,70.099 52.5,68.5C 60.1667,68.5 67.8333,68.5 75.5,68.5C 75.2322,70.099 75.5655,71.4324 76.5,72.5 Z"/></g> 						<g><path style="opacity:0.876" fill="#0f88ba" d="M 5.5,85.5 C 7.9479,86.4731 10.6146,86.8064 13.5,86.5C 13.5,89.5 13.5,92.5 13.5,95.5C 10.5,95.5 7.5,95.5 4.5,95.5C 4.18723,91.9581 4.52056,88.6248 5.5,85.5 Z"/></g> 						<g><path style="opacity:0.782" fill="#0f87b9" d="M 31.5,85.5 C 31.7291,88.5844 31.7291,91.9178 31.5,95.5C 28.5,95.5 25.5,95.5 22.5,95.5C 22.5,92.5 22.5,89.5 22.5,86.5C 25.7131,86.81 28.7131,86.4767 31.5,85.5 Z"/></g> 						<g><path style="opacity:0.791" fill="#0f87b9" d="M 95.5,85.5 C 98.728,86.4137 102.061,86.7471 105.5,86.5C 105.5,89.5 105.5,92.5 105.5,95.5C 102.5,95.5 99.5,95.5 96.5,95.5C 96.6576,92.0977 96.3242,88.7644 95.5,85.5 Z"/></g> 						<g><path style="opacity:0.877" fill="#0f88ba" d="M 122.5,85.5 C 123.479,88.6248 123.813,91.9581 123.5,95.5C 120.5,95.5 117.5,95.5 114.5,95.5C 114.5,92.5 114.5,89.5 114.5,86.5C 117.385,86.8064 120.052,86.4731 122.5,85.5 Z"/></g> 						<g><path style="opacity:0.968" fill="#0a7cab" d="M 1.5,95.5 C 4.72797,96.4137 8.06131,96.7471 11.5,96.5C 11.5,99.8333 11.5,103.167 11.5,106.5C 8.16667,106.5 4.83333,106.5 1.5,106.5C 1.5,102.833 1.5,99.1667 1.5,95.5 Z"/></g> 						<g><path style="opacity:0.881" fill="#097aa9" d="M 12.5,96.5 C 15.8333,96.5 19.1667,96.5 22.5,96.5C 22.5,99.8333 22.5,103.167 22.5,106.5C 19.1667,106.5 15.8333,106.5 12.5,106.5C 12.5,103.167 12.5,99.8333 12.5,96.5 Z"/></g> 						<g><path style="opacity:0.872" fill="#0a7baa" d="M 23.5,96.5 C 26.8333,96.5 30.1667,96.5 33.5,96.5C 33.5,99.8333 33.5,103.167 33.5,106.5C 30.1667,106.5 26.8333,106.5 23.5,106.5C 23.5,103.167 23.5,99.8333 23.5,96.5 Z"/></g> 						<g><path style="opacity:0.877" fill="#0a7cab" d="M 92.5,95.5 C 96.0641,96.4227 99.7307,96.756 103.5,96.5C 103.5,99.8333 103.5,103.167 103.5,106.5C 100.167,106.5 96.8333,106.5 93.5,106.5C 93.6773,102.766 93.3439,99.0991 92.5,95.5 Z"/></g> 						<g><path style="opacity:0.882" fill="#097aa9" d="M 104.5,96.5 C 107.833,96.5 111.167,96.5 114.5,96.5C 114.5,99.8333 114.5,103.167 114.5,106.5C 111.167,106.5 107.833,106.5 104.5,106.5C 104.5,103.167 104.5,99.8333 104.5,96.5 Z"/></g> 						<g><path style="opacity:0.883" fill="#0a7ba9" d="M 115.5,96.5 C 118.833,96.5 122.167,96.5 125.5,96.5C 125.5,99.8333 125.5,103.167 125.5,106.5C 122.167,106.5 118.833,106.5 115.5,106.5C 115.5,103.167 115.5,99.8333 115.5,96.5 Z"/></g> 						<g><path style="opacity:0.981" fill="#006590" d="M -0.5,107.5 C 3.16667,107.5 6.83333,107.5 10.5,107.5C 10.5,111.167 10.5,114.833 10.5,118.5C 6.83333,118.5 3.16667,118.5 -0.5,118.5C -0.5,114.833 -0.5,111.167 -0.5,107.5 Z"/></g> 						<g><path style="opacity:0.899" fill="#006691" d="M 11.5,107.5 C 15.5,107.5 19.5,107.5 23.5,107.5C 23.5,111.167 23.5,114.833 23.5,118.5C 19.5,118.5 15.5,118.5 11.5,118.5C 11.5,114.833 11.5,111.167 11.5,107.5 Z"/></g> 						<g><path style="opacity:0.898" fill="#006691" d="M 24.5,107.5 C 28.5,107.5 32.5,107.5 36.5,107.5C 36.5,111.167 36.5,114.833 36.5,118.5C 32.5,118.5 28.5,118.5 24.5,118.5C 24.5,114.833 24.5,111.167 24.5,107.5 Z"/></g> 						<g><path style="opacity:0.898" fill="#006590" d="M 90.5,107.5 C 94.5,107.5 98.5,107.5 102.5,107.5C 102.5,111.167 102.5,114.833 102.5,118.5C 98.5,118.5 94.5,118.5 90.5,118.5C 90.5,114.833 90.5,111.167 90.5,107.5 Z"/></g> 						<g><path style="opacity:0.899" fill="#006691" d="M 103.5,107.5 C 107.5,107.5 111.5,107.5 115.5,107.5C 115.5,111.167 115.5,114.833 115.5,118.5C 111.5,118.5 107.5,118.5 103.5,118.5C 103.5,114.833 103.5,111.167 103.5,107.5 Z"/></g> 						<g><path style="opacity:0.981" fill="#006691" d="M 127.5,107.5 C 127.5,111.167 127.5,114.833 127.5,118.5C 123.833,118.5 120.167,118.5 116.5,118.5C 116.5,114.833 116.5,111.167 116.5,107.5C 120.167,107.5 123.833,107.5 127.5,107.5 Z"/></g> 						</svg>