<svg xmlns="http://www.w3.org/2000/svg" xmlns:xlink="http://www.w3.org/1999/xlink" version="1.1" width="192px" height="192px" style="shape-rendering:geometricPrecision; text-rendering:geometricPrecision; image-rendering:optimizeQuality; fill-rule:evenodd; clip-rule:evenodd">
<g><path style="opacity:0.991" fill="#00d2ff" d="M 66.5,8.5 C 63.5802,12.4257 60.2468,16.0923 56.5,19.5C 53.3,20.5312 50.4667,22.1979 48,24.5C 47.6667,24.1667 47.3333,23.8333 47,23.5C 44.6877,23.9551 42.6877,24.9551 41,26.5C 40.6667,25.8333 40.3333,25.1667 40,24.5C 37.1311,26.5323 34.4644,28.8656 32,31.5C 31.6667,30.8333 31.3333,30.1667 31,29.5C 25.6817,34.0402 19.515,36.8736 12.5,38C 11.7734,39.3988 11.2734,40.8988 11,42.5C 10.7216,41.5842 10.2216,40.9175 9.5,40.5C 12.8995,23.2665 23.2328,12.7665 40.5,9C 49.1603,8.50025 57.8269,8.33358 66.5,8.5 Z"/></g>
<g><path style="opacity:0.995" fill="#00caff" d="M 66.5,8.5 C 71.8333,8.5 77.1667,8.5 82.5,8.5C 85.0869,11.4291 87.7536,14.4291 90.5,17.5C 85.8572,19.1759 81.3572,21.8426 77,25.5C 69.1193,24.6483 61.9526,26.6483 55.5,31.5C 53.6711,30.7122 52.0044,31.2122 50.5,33C 48.444,33.3108 46.444,33.8108 44.5,34.5C 43.914,34.2907 43.414,33.9574 43,33.5C 38.2805,36.5181 33.1139,38.3514 27.5,39C 24.2221,40.6475 21.0555,42.4808 18,44.5C 15.0758,44.6257 12.4092,45.959 10,48.5C 9.61742,47.944 9.11742,47.6107 8.5,47.5C 8.19845,44.9407 8.53178,42.6074 9.5,40.5C 10.2216,40.9175 10.7216,41.5842 11,42.5C 11.2734,40.8988 11.7734,39.3988 12.5,38C 19.515,36.8736 25.6817,34.0402 31,29.5C 31.3333,30.1667 31.6667,30.8333 32,31.5C 34.4644,28.8656 37.1311,26.5323 40,24.5C 40.3333,25.1667 40.6667,25.8333 41,26.5C 42.6877,24.9551 44.6877,23.9551 47,23.5C 47.3333,23.8333 47.6667,24.1667 48,24.5C 50.4667,22.1979 53.3,20.5312 56.5,19.5C 60.2468,16.0923 63.5802,12.4257 66.5,8.5 Z"/></g>
<g><path style="opacity:0.992" fill="#00d2fe" d="M 82.5,8.5 C 105.169,8.33337 127.836,8.50004 150.5,9C 163.788,11.1323 173.121,18.2989 178.5,30.5C 177.732,34.139 177.066,33.8057 176.5,29.5C 174.058,29.3537 173.391,30.187 174.5,32C 172.77,33.8524 171.604,33.6857 171,31.5C 170.667,32.1667 170.333,32.8333 170,33.5C 168.333,32.8333 166.667,32.1667 165,31.5C 164.626,32.4162 164.126,33.2496 163.5,34C 160.854,34.4974 158.187,34.6641 155.5,34.5C 155.5,35.5 155.5,36.5 155.5,37.5C 149.843,38.8058 144.51,38.8058 139.5,37.5C 139.678,38.956 138.844,40.2893 137,41.5C 136.15,40.5761 135.15,40.5761 134,41.5C 133.055,41.0946 132.388,40.428 132,39.5C 131.316,40.7839 131.483,41.9505 132.5,43C 128.6,42.6159 124.6,42.7825 120.5,43.5C 116.094,39.7536 111.427,36.4203 106.5,33.5C 104.167,30.5 101.5,27.8333 98.5,25.5C 96.1395,22.4728 93.4729,19.8062 90.5,17.5C 87.7536,14.4291 85.0869,11.4291 82.5,8.5 Z"/></g>
<g><path style="opacity:0.998" fill="#00c4ff" d="M 90.5,17.5 C 93.4729,19.8062 96.1395,22.4728 98.5,25.5C 95.7426,25.3784 93.7426,26.5451 92.5,29C 89.0439,28.9074 86.0439,29.9074 83.5,32C 81.0481,32.2895 78.7148,32.9562 76.5,34C 71.8043,33.663 67.3043,34.8296 63,37.5C 59.4377,36.9103 55.9377,37.5769 52.5,39.5C 51.7065,39.0688 50.8732,38.7355 50,38.5C 47.6667,39.5 45.3333,40.5 43,41.5C 42.228,41.3552 41.5613,41.0219 41,40.5C 38.429,42.3527 35.7623,44.0194 33,45.5C 32.6667,45.1667 32.3333,44.8333 32,44.5C 24.1496,47.3122 16.3162,50.3122 8.5,53.5C 8.5,51.5 8.5,49.5 8.5,47.5C 9.11742,47.6107 9.61742,47.944 10,48.5C 12.4092,45.959 15.0758,44.6257 18,44.5C 21.0555,42.4808 24.2221,40.6475 27.5,39C 33.1139,38.3514 38.2805,36.5181 43,33.5C 43.414,33.9574 43.914,34.2907 44.5,34.5C 46.444,33.8108 48.444,33.3108 50.5,33C 52.0044,31.2122 53.6711,30.7122 55.5,31.5C 61.9526,26.6483 69.1193,24.6483 77,25.5C 81.3572,21.8426 85.8572,19.1759 90.5,17.5 Z"/></g>
<g><path style="opacity:0.999" fill="#00befe" d="M 98.5,25.5 C 101.5,27.8333 104.167,30.5 106.5,33.5C 107.441,35.7721 108.774,37.7721 110.5,39.5C 108.606,38.9524 106.94,37.9524 105.5,36.5C 102.017,37.2068 98.5175,37.8734 95,38.5C 89.0105,37.4858 83.0105,38.4858 77,41.5C 73.4231,42.0775 69.7565,42.0775 66,41.5C 63.5524,43.6126 60.8857,44.2793 58,43.5C 56.9701,43.8361 56.4701,44.5028 56.5,45.5C 56.1667,45.5 55.8333,45.5 55.5,45.5C 53.5883,46.0848 51.4216,46.0848 49,45.5C 46.4609,47.1029 43.7942,48.4362 41,49.5C 40.586,49.0426 40.086,48.7093 39.5,48.5C 36.3604,50.0221 33.0271,50.8554 29.5,51C 28.1092,52.6501 26.6092,53.1501 25,52.5C 19.3912,54.7251 13.8912,57.0584 8.5,59.5C 8.5,57.5 8.5,55.5 8.5,53.5C 16.3162,50.3122 24.1496,47.3122 32,44.5C 32.3333,44.8333 32.6667,45.1667 33,45.5C 35.7623,44.0194 38.429,42.3527 41,40.5C 41.5613,41.0219 42.228,41.3552 43,41.5C 45.3333,40.5 47.6667,39.5 50,38.5C 50.8732,38.7355 51.7065,39.0688 52.5,39.5C 55.9377,37.5769 59.4377,36.9103 63,37.5C 67.3043,34.8296 71.8043,33.663 76.5,34C 78.7148,32.9562 81.0481,32.2895 83.5,32C 86.0439,29.9074 89.0439,28.9074 92.5,29C 93.7426,26.5451 95.7426,25.3784 98.5,25.5 Z"/></g>
<g><path style="opacity:0.993" fill="#00cafd" d="M 178.5,30.5 C 180.587,34.49 181.92,38.8234 182.5,43.5C 181.698,44.9516 181.198,46.6183 181,48.5C 180.517,47.552 180.351,46.552 180.5,45.5C 178.01,46.4253 175.51,47.4253 173,48.5C 171.564,48.4411 170.231,48.1078 169,47.5C 167.258,50.3514 164.925,51.0181 162,49.5C 161,50.5 160,51.5 159,52.5C 157.915,51.7069 156.748,51.0402 155.5,50.5C 153.458,52.7131 151.125,53.3798 148.5,52.5C 147.614,53.325 147.281,54.325 147.5,55.5C 145.403,55.0033 143.57,54.67 142,54.5C 140.903,56.0526 139.57,57.386 138,58.5C 137.586,58.0426 137.086,57.7093 136.5,57.5C 136.036,58.6364 135.702,59.6364 135.5,60.5C 130.901,54.562 125.901,48.8953 120.5,43.5C 124.6,42.7825 128.6,42.6159 132.5,43C 131.483,41.9505 131.316,40.7839 132,39.5C 132.388,40.428 133.055,41.0946 134,41.5C 135.15,40.5761 136.15,40.5761 137,41.5C 138.844,40.2893 139.678,38.956 139.5,37.5C 144.51,38.8058 149.843,38.8058 155.5,37.5C 155.5,36.5 155.5,35.5 155.5,34.5C 158.187,34.6641 160.854,34.4974 163.5,34C 164.126,33.2496 164.626,32.4162 165,31.5C 166.667,32.1667 168.333,32.8333 170,33.5C 170.333,32.8333 170.667,32.1667 171,31.5C 171.604,33.6857 172.77,33.8524 174.5,32C 173.391,30.187 174.058,29.3537 176.5,29.5C 177.066,33.8057 177.732,34.139 178.5,30.5 Z"/></g>
<g><path style="opacity:1" fill="#00b7fd" d="M 110.5,39.5 C 112.692,42.5498 114.358,45.8832 115.5,49.5C 115.631,50.2389 115.464,50.9056 115,51.5C 114,49.5 113,47.5 112,45.5C 109,46.1667 106,46.8333 103,47.5C 101.316,45.5406 99.3158,45.5406 97,47.5C 95.4345,48.0606 94.1011,47.3939 93,45.5C 91.4452,47.1458 89.7785,47.4791 88,46.5C 86.077,47.3161 84.077,47.9828 82,48.5C 78.1464,48.4024 74.3131,48.4024 70.5,48.5C 68.8778,50.4386 67.0445,50.772 65,49.5C 64.5,50 64,50.5 63.5,51C 64.8228,51.8159 65.4894,52.9826 65.5,54.5C 63.5,52.8333 61.5,51.1667 59.5,49.5C 58.5,48.1667 57.5,46.8333 56.5,45.5C 56.4701,44.5028 56.9701,43.8361 58,43.5C 60.8857,44.2793 63.5524,43.6126 66,41.5C 69.7565,42.0775 73.4231,42.0775 77,41.5C 83.0105,38.4858 89.0105,37.4858 95,38.5C 98.5175,37.8734 102.017,37.2068 105.5,36.5C 106.94,37.9524 108.606,38.9524 110.5,39.5 Z"/></g>
<g><path style="opacity:1" fill="#010305" d="M 106.5,33.5 C 111.427,36.4203 116.094,39.7536 120.5,43.5C 125.901,48.8953 130.901,54.562 135.5,60.5C 137.234,64.2996 139.234,67.9663 141.5,71.5C 143.762,76.2855 145.428,81.2855 146.5,86.5C 147.323,89.4606 147.99,92.4606 148.5,95.5C 148.563,100.203 148.229,104.87 147.5,109.5C 146.85,111.435 146.517,113.435 146.5,115.5C 147.449,117.777 148.782,119.777 150.5,121.5C 151.472,124.437 152.805,127.103 154.5,129.5C 156.065,135.38 156.732,141.38 156.5,147.5C 156.306,151.005 155.306,151.338 153.5,148.5C 150.08,141.955 144.58,138.955 137,139.5C 134.075,139.523 131.241,140.023 128.5,141C 121.416,145.05 114.083,148.216 106.5,150.5C 97.4549,151.775 88.4549,151.441 79.5,149.5C 70.6684,146.088 62.0017,142.088 53.5,137.5C 50.6803,135.255 47.6803,133.255 44.5,131.5C 39.8053,126.474 35.1387,121.474 30.5,116.5C 28.5879,114.343 26.9213,112.009 25.5,109.5C 26.1667,109.5 26.8333,109.5 27.5,109.5C 48.8344,126.276 72.1677,129.61 97.5,119.5C 98.4778,119.189 99.1445,118.522 99.5,117.5C 97.0976,115.091 94.4309,113.091 91.5,111.5C 88.4575,107.456 84.7908,104.123 80.5,101.5C 79.1667,99.5 77.5,97.8333 75.5,96.5C 73.5,94.1667 71.5,91.8333 69.5,89.5C 66.4715,86.141 63.4715,82.8076 60.5,79.5C 57.4905,76.1257 54.4905,72.7923 51.5,69.5C 50.2141,66.883 48.5475,64.5496 46.5,62.5C 44.0081,59.5309 41.5081,56.5309 39,53.5C 38.3333,52.8333 38.3333,52.1667 39,51.5C 42.7713,54.959 46.6046,58.2924 50.5,61.5C 54.019,64.4207 57.6857,67.0873 61.5,69.5C 69.9461,77.4744 79.2795,83.9744 89.5,89C 82.2224,81.56 75.5557,73.7266 69.5,65.5C 67.3971,62.2802 65.0638,59.2802 62.5,56.5C 61.1667,54.5 59.8333,52.5 58.5,50.5C 58.5,49.8333 58.8333,49.5 59.5,49.5C 61.5,51.1667 63.5,52.8333 65.5,54.5C 67.1667,56.8333 69.1667,58.8333 71.5,60.5C 75.847,64.8451 80.5137,68.8451 85.5,72.5C 91.685,77.42 98.0184,82.0866 104.5,86.5C 108.517,89.8319 112.85,92.8319 117.5,95.5C 119.264,92.7852 120.264,89.7852 120.5,86.5C 121.833,79.5 121.833,72.5 120.5,65.5C 120.198,62.6275 119.531,59.9608 118.5,57.5C 118.02,54.5568 117.02,51.8902 115.5,49.5C 114.358,45.8832 112.692,42.5498 110.5,39.5C 108.774,37.7721 107.441,35.7721 106.5,33.5 Z"/></g>
<g><path style="opacity:0.991" fill="#00c3fd" d="M 182.5,43.5 C 182.5,48.5 182.5,53.5 182.5,58.5C 179.584,55.5368 177.084,55.8702 175,59.5C 170.954,59.4072 167.287,59.4072 164,59.5C 156.304,62.5635 148.804,64.8969 141.5,66.5C 142.096,68.398 142.096,70.0646 141.5,71.5C 139.234,67.9663 137.234,64.2996 135.5,60.5C 135.702,59.6364 136.036,58.6364 136.5,57.5C 137.086,57.7093 137.586,58.0426 138,58.5C 139.57,57.386 140.903,56.0526 142,54.5C 143.57,54.67 145.403,55.0033 147.5,55.5C 147.281,54.325 147.614,53.325 148.5,52.5C 151.125,53.3798 153.458,52.7131 155.5,50.5C 156.748,51.0402 157.915,51.7069 159,52.5C 160,51.5 161,50.5 162,49.5C 164.925,51.0181 167.258,50.3514 169,47.5C 170.231,48.1078 171.564,48.4411 173,48.5C 175.51,47.4253 178.01,46.4253 180.5,45.5C 180.351,46.552 180.517,47.552 181,48.5C 181.198,46.6183 181.698,44.9516 182.5,43.5 Z"/></g>
<g><path style="opacity:1" fill="#00b0fd" d="M 115.5,49.5 C 117.02,51.8902 118.02,54.5568 118.5,57.5C 118.404,61.3107 117.738,61.3107 116.5,57.5C 114.941,58.0736 113.441,58.7402 112,59.5C 109.517,58.7561 106.851,58.7561 104,59.5C 101.24,56.2157 98.2399,55.5491 95,57.5C 94.5917,55.5904 93.4251,54.5904 91.5,54.5C 88.1357,56.5295 84.969,56.5295 82,54.5C 80.3308,56.7213 78.3308,57.0546 76,55.5C 74.5,56 73,56.5 71.5,57C 70.8288,57.9862 70.8288,59.1529 71.5,60.5C 69.1667,58.8333 67.1667,56.8333 65.5,54.5C 65.4894,52.9826 64.8228,51.8159 63.5,51C 64,50.5 64.5,50 65,49.5C 67.0445,50.772 68.8778,50.4386 70.5,48.5C 74.3131,48.4024 78.1464,48.4024 82,48.5C 84.077,47.9828 86.077,47.3161 88,46.5C 89.7785,47.4791 91.4452,47.1458 93,45.5C 94.1011,47.3939 95.4345,48.0606 97,47.5C 99.3158,45.5406 101.316,45.5406 103,47.5C 106,46.8333 109,46.1667 112,45.5C 113,47.5 114,49.5 115,51.5C 115.464,50.9056 115.631,50.2389 115.5,49.5 Z"/></g>
<g><path style="opacity:1" fill="#074b63" d="M 55.5,45.5 C 55.8333,45.5 56.1667,45.5 56.5,45.5C 57.5,46.8333 58.5,48.1667 59.5,49.5C 58.8333,49.5 58.5,49.8333 58.5,50.5C 57.1103,49.1007 56.1103,47.4341 55.5,45.5 Z"/></g>
<g><path style="opacity:0.999" fill="#00b4fc" d="M 55.5,45.5 C 56.1103,47.4341 57.1103,49.1007 58.5,50.5C 59.8333,52.5 61.1667,54.5 62.5,56.5C 60.4437,57.2161 58.277,57.8828 56,58.5C 55.6667,58.1667 55.3333,57.8333 55,57.5C 53.9326,58.1905 52.7659,58.6905 51.5,59C 50.7476,59.6708 50.4142,60.5041 50.5,61.5C 46.6046,58.2924 42.7713,54.959 39,51.5C 38.3333,52.1667 38.3333,52.8333 39,53.5C 41.5081,56.5309 44.0081,59.5309 46.5,62.5C 44.629,62.1412 43.129,61.1412 42,59.5C 39.2824,60.3468 36.6157,61.3468 34,62.5C 31.3907,62.7762 28.724,62.7762 26,62.5C 24,63.8333 22,65.1667 20,66.5C 19.586,66.0426 19.086,65.7093 18.5,65.5C 15.0357,67.4527 11.7023,68.786 8.5,69.5C 8.5,66.1667 8.5,62.8333 8.5,59.5C 13.8912,57.0584 19.3912,54.7251 25,52.5C 26.6092,53.1501 28.1092,52.6501 29.5,51C 33.0271,50.8554 36.3604,50.0221 39.5,48.5C 40.086,48.7093 40.586,49.0426 41,49.5C 43.7942,48.4362 46.4609,47.1029 49,45.5C 51.4216,46.0848 53.5883,46.0848 55.5,45.5 Z"/></g>
<g><path style="opacity:0.999" fill="#00bcfe" d="M 182.5,58.5 C 182.5,63.8333 182.5,69.1667 182.5,74.5C 178.021,76.2715 173.354,77.6048 168.5,78.5C 167.914,78.2907 167.414,77.9574 167,77.5C 163.841,78.6225 160.841,79.9558 158,81.5C 156.333,81.1667 154.667,80.8333 153,80.5C 152.167,81.5 151.333,82.5 150.5,83.5C 149.808,82.9747 149.308,82.3081 149,81.5C 148.015,83.1749 147.181,84.8415 146.5,86.5C 145.428,81.2855 143.762,76.2855 141.5,71.5C 142.096,70.0646 142.096,68.398 141.5,66.5C 148.804,64.8969 156.304,62.5635 164,59.5C 167.287,59.4072 170.954,59.4072 175,59.5C 177.084,55.8702 179.584,55.5368 182.5,58.5 Z"/></g>
<g><path style="opacity:1" fill="#00a6fd" d="M 118.5,57.5 C 119.531,59.9608 120.198,62.6275 120.5,65.5C 120.808,67.924 120.474,70.2573 119.5,72.5C 115.302,71.1915 111.136,71.1915 107,72.5C 102.401,71.989 97.9013,70.989 93.5,69.5C 91.1167,70.9048 88.95,70.5715 87,68.5C 84.2562,69.061 83.7562,70.3943 85.5,72.5C 80.5137,68.8451 75.847,64.8451 71.5,60.5C 70.8288,59.1529 70.8288,57.9862 71.5,57C 73,56.5 74.5,56 76,55.5C 78.3308,57.0546 80.3308,56.7213 82,54.5C 84.969,56.5295 88.1357,56.5295 91.5,54.5C 93.4251,54.5904 94.5917,55.5904 95,57.5C 98.2399,55.5491 101.24,56.2157 104,59.5C 106.851,58.7561 109.517,58.7561 112,59.5C 113.441,58.7402 114.941,58.0736 116.5,57.5C 117.738,61.3107 118.404,61.3107 118.5,57.5 Z"/></g>
<g><path style="opacity:1" fill="#00a5fa" d="M 62.5,56.5 C 65.0638,59.2802 67.3971,62.2802 69.5,65.5C 69.2942,67.5492 68.4609,67.8825 67,66.5C 64.9817,67.2228 63.1484,68.2228 61.5,69.5C 57.6857,67.0873 54.019,64.4207 50.5,61.5C 50.4142,60.5041 50.7476,59.6708 51.5,59C 52.7659,58.6905 53.9326,58.1905 55,57.5C 55.3333,57.8333 55.6667,58.1667 56,58.5C 58.277,57.8828 60.4437,57.2161 62.5,56.5 Z"/></g>
<g><path style="opacity:0.999" fill="#00a6fd" d="M 46.5,62.5 C 48.5475,64.5496 50.2141,66.883 51.5,69.5C 49.8877,68.5477 48.3877,68.2144 47,68.5C 41.5826,69.5911 36.2493,70.9244 31,72.5C 30.4387,71.9781 29.772,71.6448 29,71.5C 22.1335,73.9919 15.3002,76.3252 8.5,78.5C 8.5,75.5 8.5,72.5 8.5,69.5C 11.7023,68.786 15.0357,67.4527 18.5,65.5C 19.086,65.7093 19.586,66.0426 20,66.5C 22,65.1667 24,63.8333 26,62.5C 28.724,62.7762 31.3907,62.7762 34,62.5C 36.6157,61.3468 39.2824,60.3468 42,59.5C 43.129,61.1412 44.629,62.1412 46.5,62.5 Z"/></g>
<g><path style="opacity:1" fill="#009bf9" d="M 120.5,65.5 C 121.833,72.5 121.833,79.5 120.5,86.5C 120.092,85.3569 119.425,84.3569 118.5,83.5C 114.828,83.5036 111.161,83.5036 107.5,83.5C 105.484,83.5159 104.484,84.5159 104.5,86.5C 98.0184,82.0866 91.685,77.42 85.5,72.5C 83.7562,70.3943 84.2562,69.061 87,68.5C 88.95,70.5715 91.1167,70.9048 93.5,69.5C 97.9013,70.989 102.401,71.989 107,72.5C 111.136,71.1915 115.302,71.1915 119.5,72.5C 120.474,70.2573 120.808,67.924 120.5,65.5 Z"/></g>
<g><path style="opacity:0.999" fill="#009afc" d="M 51.5,69.5 C 54.4905,72.7923 57.4905,76.1257 60.5,79.5C 58.9826,79.4894 57.8159,78.8228 57,77.5C 48.3977,78.2643 39.5643,79.5976 30.5,81.5C 29.5581,81.3918 28.7247,81.0585 28,80.5C 21.7315,83.2002 15.2315,85.2002 8.5,86.5C 8.5,83.8333 8.5,81.1667 8.5,78.5C 15.3002,76.3252 22.1335,73.9919 29,71.5C 29.772,71.6448 30.4387,71.9781 31,72.5C 36.2493,70.9244 41.5826,69.5911 47,68.5C 48.3877,68.2144 49.8877,68.5477 51.5,69.5 Z"/></g>
<g><path style="opacity:1" fill="#0091ed" d="M 69.5,65.5 C 75.5557,73.7266 82.2224,81.56 89.5,89C 79.2795,83.9744 69.9461,77.4744 61.5,69.5C 63.1484,68.2228 64.9817,67.2228 67,66.5C 68.4609,67.8825 69.2942,67.5492 69.5,65.5 Z"/></g>
<g><path style="opacity:0.998" fill="#00b1fd" d="M 182.5,74.5 C 182.5,77.5 182.5,80.5 182.5,83.5C 181.18,84.5301 179.68,85.5301 178,86.5C 174.872,86.6277 171.706,86.6277 168.5,86.5C 165.412,87.8576 162.245,88.8576 159,89.5C 158.667,89.1667 158.333,88.8333 158,88.5C 156.203,90.1556 154.036,91.1556 151.5,91.5C 150.914,91.2907 150.414,90.9574 150,90.5C 149.802,92.3817 149.302,94.0484 148.5,95.5C 147.99,92.4606 147.323,89.4606 146.5,86.5C 147.181,84.8415 148.015,83.1749 149,81.5C 149.308,82.3081 149.808,82.9747 150.5,83.5C 151.333,82.5 152.167,81.5 153,80.5C 154.667,80.8333 156.333,81.1667 158,81.5C 160.841,79.9558 163.841,78.6225 167,77.5C 167.414,77.9574 167.914,78.2907 168.5,78.5C 173.354,77.6048 178.021,76.2715 182.5,74.5 Z"/></g>
<g><path style="opacity:1" fill="#008dfb" d="M 60.5,79.5 C 63.4715,82.8076 66.4715,86.141 69.5,89.5C 65.7944,88.1297 61.9611,87.1297 58,86.5C 54.7343,86.6329 51.4009,86.6329 48,86.5C 40.3515,87.3267 32.5182,88.4934 24.5,90C 21.9471,90.7611 19.4471,91.5944 17,92.5C 16.6667,92.1667 16.3333,91.8333 16,91.5C 14.5913,92.7811 13.0913,93.7811 11.5,94.5C 10.5,93.8333 9.5,93.1667 8.5,92.5C 8.5,90.5 8.5,88.5 8.5,86.5C 15.2315,85.2002 21.7315,83.2002 28,80.5C 28.7247,81.0585 29.5581,81.3918 30.5,81.5C 39.5643,79.5976 48.3977,78.2643 57,77.5C 57.8159,78.8228 58.9826,79.4894 60.5,79.5 Z"/></g>
<g><path style="opacity:1" fill="#008ef7" d="M 120.5,86.5 C 120.264,89.7852 119.264,92.7852 117.5,95.5C 112.85,92.8319 108.517,89.8319 104.5,86.5C 104.484,84.5159 105.484,83.5159 107.5,83.5C 111.161,83.5036 114.828,83.5036 118.5,83.5C 119.425,84.3569 120.092,85.3569 120.5,86.5 Z"/></g>
<g><path style="opacity:1" fill="#0086fc" d="M 69.5,89.5 C 71.5,91.8333 73.5,94.1667 75.5,96.5C 73.6064,95.9524 71.9397,94.9524 70.5,93.5C 69.8333,93.8333 69.1667,94.1667 68.5,94.5C 65.7681,92.5917 62.9347,91.9251 60,92.5C 58.5589,91.7402 57.0589,91.0736 55.5,90.5C 52.6832,91.2438 49.6832,91.2438 46.5,90.5C 40.7696,91.9418 35.1029,92.9418 29.5,93.5C 28.8333,93.1667 28.1667,92.8333 27.5,92.5C 22.9962,93.8524 18.6629,95.519 14.5,97.5C 13.1667,96.8333 12.1667,95.8333 11.5,94.5C 13.0913,93.7811 14.5913,92.7811 16,91.5C 16.3333,91.8333 16.6667,92.1667 17,92.5C 19.4471,91.5944 21.9471,90.7611 24.5,90C 32.5182,88.4934 40.3515,87.3267 48,86.5C 51.4009,86.6329 54.7343,86.6329 58,86.5C 61.9611,87.1297 65.7944,88.1297 69.5,89.5 Z"/></g>
<g><path style="opacity:1" fill="#007ffc" d="M 75.5,96.5 C 77.5,97.8333 79.1667,99.5 80.5,101.5C 76.4084,101.439 72.2417,100.439 68,98.5C 65.607,99.4814 63.607,98.8147 62,96.5C 60.8831,96.6651 59.7164,96.9984 58.5,97.5C 47.1281,95.1608 36.1281,95.4941 25.5,98.5C 24.914,98.2907 24.414,97.9574 24,97.5C 21.706,98.4217 19.5394,99.4217 17.5,100.5C 16.1667,99.8333 15.1667,98.8333 14.5,97.5C 18.6629,95.519 22.9962,93.8524 27.5,92.5C 28.1667,92.8333 28.8333,93.1667 29.5,93.5C 35.1029,92.9418 40.7696,91.9418 46.5,90.5C 49.6832,91.2438 52.6832,91.2438 55.5,90.5C 57.0589,91.0736 58.5589,91.7402 60,92.5C 62.9347,91.9251 65.7681,92.5917 68.5,94.5C 69.1667,94.1667 69.8333,93.8333 70.5,93.5C 71.9397,94.9524 73.6064,95.9524 75.5,96.5 Z"/></g>
<g><path style="opacity:0.998" fill="#00a7fd" d="M 182.5,83.5 C 182.5,89.1667 182.5,94.8333 182.5,100.5C 180.533,100.739 178.699,100.406 177,99.5C 174.957,101.521 172.957,101.854 171,100.5C 170.333,101.167 169.667,101.833 169,102.5C 167.732,102.384 166.398,102.051 165,101.5C 161.7,102.626 158.366,103.626 155,104.5C 154.667,104.167 154.333,103.833 154,103.5C 151.158,104.935 148.992,106.935 147.5,109.5C 148.229,104.87 148.563,100.203 148.5,95.5C 149.302,94.0484 149.802,92.3817 150,90.5C 150.414,90.9574 150.914,91.2907 151.5,91.5C 154.036,91.1556 156.203,90.1556 158,88.5C 158.333,88.8333 158.667,89.1667 159,89.5C 162.245,88.8576 165.412,87.8576 168.5,86.5C 171.706,86.6277 174.872,86.6277 178,86.5C 179.68,85.5301 181.18,84.5301 182.5,83.5 Z"/></g>
<g><path style="opacity:1" fill="#0075fc" d="M 80.5,101.5 C 84.7908,104.123 88.4575,107.456 91.5,111.5C 88.7813,111.448 86.2813,110.782 84,109.5C 79.115,110.009 74.115,110.009 69,109.5C 68.5,109 68,108.5 67.5,108C 62.3627,107.383 57.696,106.216 53.5,104.5C 52.914,104.709 52.414,105.043 52,105.5C 51.196,104.196 50.0293,103.529 48.5,103.5C 43.2376,104.308 37.9043,104.308 32.5,103.5C 30.3031,104.066 28.1364,104.732 26,105.5C 24.2739,103.902 23.4406,104.235 23.5,106.5C 21.1667,104.833 19.1667,102.833 17.5,100.5C 19.5394,99.4217 21.706,98.4217 24,97.5C 24.414,97.9574 24.914,98.2907 25.5,98.5C 36.1281,95.4941 47.1281,95.1608 58.5,97.5C 59.7164,96.9984 60.8831,96.6651 62,96.5C 63.607,98.8147 65.607,99.4814 68,98.5C 72.2417,100.439 76.4084,101.439 80.5,101.5 Z"/></g>
<g><path style="opacity:0.998" fill="#009efd" d="M 182.5,100.5 C 182.5,102.833 182.5,105.167 182.5,107.5C 179.057,106.136 175.557,106.803 172,109.5C 171.055,109.095 170.388,108.428 170,107.5C 162.83,110.104 155.664,111.437 148.5,111.5C 148.771,113.38 148.104,114.713 146.5,115.5C 146.517,113.435 146.85,111.435 147.5,109.5C 148.992,106.935 151.158,104.935 154,103.5C 154.333,103.833 154.667,104.167 155,104.5C 158.366,103.626 161.7,102.626 165,101.5C 166.398,102.051 167.732,102.384 169,102.5C 169.667,101.833 170.333,101.167 171,100.5C 172.957,101.854 174.957,101.521 177,99.5C 178.699,100.406 180.533,100.739 182.5,100.5 Z"/></g>
<g><path style="opacity:0.996" fill="#0099fc" d="M 8.5,92.5 C 9.5,93.1667 10.5,93.8333 11.5,94.5C 12.1667,95.8333 13.1667,96.8333 14.5,97.5C 15.1667,98.8333 16.1667,99.8333 17.5,100.5C 19.1667,102.833 21.1667,104.833 23.5,106.5C 24.1667,107.5 24.8333,108.5 25.5,109.5C 26.9213,112.009 28.5879,114.343 30.5,116.5C 28.4048,115.588 26.4048,114.421 24.5,113C 22.1093,112.713 19.7759,112.213 17.5,111.5C 16.2519,112.04 15.0852,112.707 14,113.5C 13.6667,112.833 13.3333,112.167 13,111.5C 11.5861,112.413 10.0861,112.413 8.5,111.5C 8.5,105.167 8.5,98.8333 8.5,92.5 Z"/></g>
<g><path style="opacity:1" fill="#006cfa" d="M 91.5,111.5 C 94.4309,113.091 97.0976,115.091 99.5,117.5C 99.1445,118.522 98.4778,119.189 97.5,119.5C 97.3146,117.804 96.4813,116.471 95,115.5C 91.1095,115.203 87.1095,115.203 83,115.5C 79.011,114.61 75.011,113.61 71,112.5C 69.3511,113.898 68.0178,113.564 67,111.5C 65.0258,111.647 63.0258,111.981 61,112.5C 57.0778,111.084 53.0778,109.75 49,108.5C 48.2753,109.059 47.4419,109.392 46.5,109.5C 42.57,107.643 38.57,106.976 34.5,107.5C 32.0177,108.067 29.6843,108.734 27.5,109.5C 26.8333,109.5 26.1667,109.5 25.5,109.5C 24.8333,108.5 24.1667,107.5 23.5,106.5C 23.4406,104.235 24.2739,103.902 26,105.5C 28.1364,104.732 30.3031,104.066 32.5,103.5C 37.9043,104.308 43.2376,104.308 48.5,103.5C 50.0293,103.529 51.196,104.196 52,105.5C 52.414,105.043 52.914,104.709 53.5,104.5C 57.696,106.216 62.3627,107.383 67.5,108C 68,108.5 68.5,109 69,109.5C 74.115,110.009 79.115,110.009 84,109.5C 86.2813,110.782 88.7813,111.448 91.5,111.5 Z"/></g>
<g><path style="opacity:0.998" fill="#0098fd" d="M 182.5,107.5 C 182.5,110.167 182.5,112.833 182.5,115.5C 178.209,114.805 174.042,115.471 170,117.5C 167.017,117.492 164.017,117.492 161,117.5C 157.513,118.239 154.013,119.073 150.5,120C 151.738,120.69 151.738,121.19 150.5,121.5C 148.782,119.777 147.449,117.777 146.5,115.5C 148.104,114.713 148.771,113.38 148.5,111.5C 155.664,111.437 162.83,110.104 170,107.5C 170.388,108.428 171.055,109.095 172,109.5C 175.557,106.803 179.057,106.136 182.5,107.5 Z"/></g>
<g><path style="opacity:1" fill="#005ff7" d="M 97.5,119.5 C 72.1677,129.61 48.8344,126.276 27.5,109.5C 29.6843,108.734 32.0177,108.067 34.5,107.5C 38.57,106.976 42.57,107.643 46.5,109.5C 47.4419,109.392 48.2753,109.059 49,108.5C 53.0778,109.75 57.0778,111.084 61,112.5C 63.0258,111.981 65.0258,111.647 67,111.5C 68.0178,113.564 69.3511,113.898 71,112.5C 75.011,113.61 79.011,114.61 83,115.5C 87.1095,115.203 91.1095,115.203 95,115.5C 96.4813,116.471 97.3146,117.804 97.5,119.5 Z"/></g>
<g><path style="opacity:0.998" fill="#0091fc" d="M 182.5,115.5 C 182.5,117.5 182.5,119.5 182.5,121.5C 181.778,121.918 181.278,122.584 181,123.5C 180.481,122.484 179.647,121.818 178.5,121.5C 174.895,121.656 171.228,122.656 167.5,124.5C 163.519,124.092 159.686,124.092 156,124.5C 154.678,126.226 154.178,127.893 154.5,129.5C 152.805,127.103 151.472,124.437 150.5,121.5C 151.738,121.19 151.738,120.69 150.5,120C 154.013,119.073 157.513,118.239 161,117.5C 164.017,117.492 167.017,117.492 170,117.5C 174.042,115.471 178.209,114.805 182.5,115.5 Z"/></g>
<g><path style="opacity:0.998" fill="#008dfc" d="M 8.5,111.5 C 10.0861,112.413 11.5861,112.413 13,111.5C 13.3333,112.167 13.6667,112.833 14,113.5C 15.0852,112.707 16.2519,112.04 17.5,111.5C 19.7759,112.213 22.1093,112.713 24.5,113C 26.4048,114.421 28.4048,115.588 30.5,116.5C 35.1387,121.474 39.8053,126.474 44.5,131.5C 42.8042,131.315 41.4709,130.481 40.5,129C 36.4452,128.768 32.4452,128.268 28.5,127.5C 23.921,127.885 19.421,128.218 15,128.5C 14,127.833 13,127.167 12,126.5C 11.1841,127.823 10.0174,128.489 8.5,128.5C 8.5,122.833 8.5,117.167 8.5,111.5 Z"/></g>
<g><path style="opacity:0.998" fill="#0085fc" d="M 44.5,131.5 C 47.6803,133.255 50.6803,135.255 53.5,137.5C 49.9277,137.062 46.4277,136.396 43,135.5C 31.5856,135.666 20.0856,136 8.5,136.5C 8.5,133.833 8.5,131.167 8.5,128.5C 10.0174,128.489 11.1841,127.823 12,126.5C 13,127.167 14,127.833 15,128.5C 19.421,128.218 23.921,127.885 28.5,127.5C 32.4452,128.268 36.4452,128.768 40.5,129C 41.4709,130.481 42.8042,131.315 44.5,131.5 Z"/></g>
<g><path style="opacity:0.997" fill="#0086fa" d="M 182.5,121.5 C 182.5,126.5 182.5,131.5 182.5,136.5C 178.253,136.608 174.086,136.274 170,135.5C 166.843,136.079 163.843,137.079 161,138.5C 160.228,138.355 159.561,138.022 159,137.5C 158.262,140.991 157.429,144.325 156.5,147.5C 156.732,141.38 156.065,135.38 154.5,129.5C 154.178,127.893 154.678,126.226 156,124.5C 159.686,124.092 163.519,124.092 167.5,124.5C 171.228,122.656 174.895,121.656 178.5,121.5C 179.647,121.818 180.481,122.484 181,123.5C 181.278,122.584 181.778,121.918 182.5,121.5 Z"/></g>
<g><path style="opacity:0.994" fill="#007efc" d="M 53.5,137.5 C 62.0017,142.088 70.6684,146.088 79.5,149.5C 75.7927,149.208 72.2927,148.208 69,146.5C 67.1114,147.097 65.2781,147.431 63.5,147.5C 62.8333,146.833 62.1667,146.167 61.5,145.5C 59.2753,146.101 57.1086,146.434 55,146.5C 54,145.833 53,145.167 52,144.5C 39.7449,144.344 26.7449,145.011 13,146.5C 12.586,146.043 12.086,145.709 11.5,145.5C 10.4793,146.901 9.47934,148.235 8.5,149.5C 8.5,145.167 8.5,140.833 8.5,136.5C 20.0856,136 31.5856,135.666 43,135.5C 46.4277,136.396 49.9277,137.062 53.5,137.5 Z"/></g>
<g><path style="opacity:1" fill="#007bf4" d="M 153.5,148.5 C 145.853,147.121 138.52,147.454 131.5,149.5C 128.363,149.635 125.529,149.302 123,148.5C 117.586,149.526 112.086,150.192 106.5,150.5C 114.083,148.216 121.416,145.05 128.5,141C 131.241,140.023 134.075,139.523 137,139.5C 144.58,138.955 150.08,141.955 153.5,148.5 Z"/></g>
<g><path style="opacity:0.991" fill="#007afd" d="M 182.5,136.5 C 182.666,141.179 182.499,145.845 182,150.5C 181.79,152.058 181.29,153.391 180.5,154.5C 179.778,154.918 179.278,155.584 179,156.5C 178.71,154.956 178.044,153.623 177,152.5C 169.667,153.833 162.333,153.833 155,152.5C 149.408,153.938 143.742,154.938 138,155.5C 135.347,155.318 132.68,154.985 130,154.5C 118.847,155.392 107.847,156.059 97,156.5C 95,155.833 93,155.167 91,154.5C 85.1476,154.489 79.1476,154.823 73,155.5C 68.6667,154.5 64.3333,153.5 60,152.5C 59.6667,153.167 59.3333,153.833 59,154.5C 43.4586,154.424 27.9586,154.09 12.5,153.5C 12.6495,154.552 12.4828,155.552 12,156.5C 11.8413,154.657 11.3413,153.991 10.5,154.5C 9.69079,152.972 9.02412,151.306 8.5,149.5C 9.47934,148.235 10.4793,146.901 11.5,145.5C 12.086,145.709 12.586,146.043 13,146.5C 26.7449,145.011 39.7449,144.344 52,144.5C 53,145.167 54,145.833 55,146.5C 57.1086,146.434 59.2753,146.101 61.5,145.5C 62.1667,146.167 62.8333,146.833 63.5,147.5C 65.2781,147.431 67.1114,147.097 69,146.5C 72.2927,148.208 75.7927,149.208 79.5,149.5C 88.4549,151.441 97.4549,151.775 106.5,150.5C 112.086,150.192 117.586,149.526 123,148.5C 125.529,149.302 128.363,149.635 131.5,149.5C 138.52,147.454 145.853,147.121 153.5,148.5C 155.306,151.338 156.306,151.005 156.5,147.5C 157.429,144.325 158.262,140.991 159,137.5C 159.561,138.022 160.228,138.355 161,138.5C 163.843,137.079 166.843,136.079 170,135.5C 174.086,136.274 178.253,136.608 182.5,136.5 Z"/></g>
<g><path style="opacity:0.994" fill="#0073fd" d="M 180.5,154.5 C 180.163,158.836 178.496,162.503 175.5,165.5C 174.129,163.859 172.296,162.859 170,162.5C 166.288,163.769 162.622,163.769 159,162.5C 158.692,163.308 158.192,163.975 157.5,164.5C 154.966,163.212 152.466,163.212 150,164.5C 148.915,163.707 147.748,163.04 146.5,162.5C 145.033,163.695 143.533,163.695 142,162.5C 140.739,162.759 139.739,163.426 139,164.5C 138.481,163.484 137.647,162.818 136.5,162.5C 127.668,162.612 118.835,162.612 110,162.5C 108.333,163.167 106.667,163.833 105,164.5C 103.667,163.167 102.333,163.167 101,164.5C 99.9148,163.707 98.7481,163.04 97.5,162.5C 95.2035,162.745 92.7035,163.411 90,164.5C 89.0546,164.095 88.3879,163.428 88,162.5C 87,163.833 86,163.833 85,162.5C 84.3086,164.891 83.3086,164.891 82,162.5C 80.6667,163.833 79.3333,163.833 78,162.5C 77.3086,164.891 76.3086,164.891 75,162.5C 74.15,163.424 73.15,163.424 72,162.5C 69.6637,164.546 66.997,164.546 64,162.5C 58.1109,162.944 52.1109,162.944 46,162.5C 45,163.167 44,163.833 43,164.5C 40.8683,163.22 38.7016,163.22 36.5,164.5C 35.4826,161.972 34.3159,161.972 33,164.5C 31.7009,163.02 30.0342,162.354 28,162.5C 24.4761,163.313 21.1427,163.313 18,162.5C 16.955,163.373 16.1217,164.373 15.5,165.5C 12.5035,162.503 10.8369,158.836 10.5,154.5C 11.3413,153.991 11.8413,154.657 12,156.5C 12.4828,155.552 12.6495,154.552 12.5,153.5C 27.9586,154.09 43.4586,154.424 59,154.5C 59.3333,153.833 59.6667,153.167 60,152.5C 64.3333,153.5 68.6667,154.5 73,155.5C 79.1476,154.823 85.1476,154.489 91,154.5C 93,155.167 95,155.833 97,156.5C 107.847,156.059 118.847,155.392 130,154.5C 132.68,154.985 135.347,155.318 138,155.5C 143.742,154.938 149.408,153.938 155,152.5C 162.333,153.833 169.667,153.833 177,152.5C 178.044,153.623 178.71,154.956 179,156.5C 179.278,155.584 179.778,154.918 180.5,154.5 Z"/></g>
<g><path style="opacity:0.992" fill="#006cfd" d="M 175.5,165.5 C 169.753,174.719 161.42,180.219 150.5,182C 113.833,182.667 77.1667,182.667 40.5,182C 29.5803,180.219 21.247,174.719 15.5,165.5C 16.1217,164.373 16.955,163.373 18,162.5C 21.1427,163.313 24.4761,163.313 28,162.5C 30.0342,162.354 31.7009,163.02 33,164.5C 34.3159,161.972 35.4826,161.972 36.5,164.5C 38.7016,163.22 40.8683,163.22 43,164.5C 44,163.833 45,163.167 46,162.5C 52.1109,162.944 58.1109,162.944 64,162.5C 66.997,164.546 69.6637,164.546 72,162.5C 73.15,163.424 74.15,163.424 75,162.5C 76.3086,164.891 77.3086,164.891 78,162.5C 79.3333,163.833 80.6667,163.833 82,162.5C 83.3086,164.891 84.3086,164.891 85,162.5C 86,163.833 87,163.833 88,162.5C 88.3879,163.428 89.0546,164.095 90,164.5C 92.7035,163.411 95.2035,162.745 97.5,162.5C 98.7481,163.04 99.9148,163.707 101,164.5C 102.333,163.167 103.667,163.167 105,164.5C 106.667,163.833 108.333,163.167 110,162.5C 118.835,162.612 127.668,162.612 136.5,162.5C 137.647,162.818 138.481,163.484 139,164.5C 139.739,163.426 140.739,162.759 142,162.5C 143.533,163.695 145.033,163.695 146.5,162.5C 147.748,163.04 148.915,163.707 150,164.5C 152.466,163.212 154.966,163.212 157.5,164.5C 158.192,163.975 158.692,163.308 159,162.5C 162.622,163.769 166.288,163.769 170,162.5C 172.296,162.859 174.129,163.859 175.5,165.5 Z"/></g>
</svg>